# xmcd
#
# Track frame offsets:
#	150
#	20926
#	47204
#	66786
#	88498
#	108465
#	133585
#	156915
#	176380
#	194621
#	216868
#	236567
#	255488
#	282804
#	299397
#
# Disc length: 4273 seconds
#
# Revision: 1
# Processed by: cddbd v1.5.1PL2 Copyright (c) Steve Scherf et al.
# Submitted via: audiograbber 1.83.01
#
DISCID=e910af0f
DTITLE=Александр Малинин - Золотая коллекция России
DYEAR=2000
DGENRE=
TTITLE0=Поручик Голицын
TTITLE1=Любовь и разлука
TTITLE2=Только раз
TTITLE3=Напрасные слова
TTITLE4=Гори, гори, моя звезда
TTITLE5=Ямщик
TTITLE6=Мольба
TTITLE7=Гусарская баллада
TTITLE8=Белое на синем
TTITLE9=Сон офицера
TTITLE10=Дай Бог
TTITLE11=Забава
TTITLE12=Пилигримы
TTITLE13=Мне грустно
TTITLE14=Молитва
EXTD=
EXTT0=
EXTT1=
EXTT2=
EXTT3=
EXTT4=
EXTT5=
EXTT6=
EXTT7=
EXTT8=
EXTT9=
EXTT10=
EXTT11=
EXTT12=
EXTT13=
EXTT14=
PLAYORDER=
